<svg width="197" height="77" viewBox="0 0 197 77" fill="none" xmlns="http://www.w3.org/2000/svg">
<path d="M177.484 63.3874H19.0161C15.4664 63.3874 12.6774 60.5984 12.6774 57.0487V19.0164C12.6774 15.4668 15.4664 12.6777 19.0161 12.6777H177.484C181.033 12.6777 183.823 15.4668 183.823 19.0164V57.0487C183.823 60.4716 181.033 63.3874 177.484 63.3874Z" fill="black"/>
<path d="M177.484 13.6919C180.4 13.6919 182.808 16.1006 182.808 19.0164V57.0487C182.808 59.9645 180.4 62.3732 177.484 62.3732H19.0161C16.1003 62.3732 13.6916 59.9645 13.6916 57.0487V19.0164C13.6916 16.1006 16.1003 13.6919 19.0161 13.6919H177.484ZM177.484 12.6777H19.0161C15.4664 12.6777 12.6774 15.4668 12.6774 19.0164V57.0487C12.6774 60.5984 15.4664 63.3874 19.0161 63.3874H177.484C181.033 63.3874 183.823 60.5984 183.823 57.0487V19.0164C183.823 15.4668 181.033 12.6777 177.484 12.6777Z" fill="white"/>
<path d="M72.7684 25.6079C72.7684 26.6221 72.5149 27.5095 71.881 28.1434C71.1204 28.904 70.233 29.2843 69.092 29.2843C67.951 29.2843 67.0636 28.904 66.303 28.1434C65.5423 27.3827 65.162 26.4953 65.162 25.3543C65.162 24.2134 65.5423 23.3259 66.303 22.5653C67.0636 21.8046 67.951 21.4243 69.092 21.4243C69.5991 21.4243 70.1062 21.5511 70.6133 21.8046C71.1204 22.0582 71.5007 22.3117 71.7542 22.6921L71.1204 23.1992C70.6133 22.5653 69.9794 22.3117 69.092 22.3117C68.3313 22.3117 67.5707 22.5653 67.0636 23.1992C66.4297 23.7063 66.1762 24.4669 66.1762 25.3543C66.1762 26.2417 66.4297 27.0024 67.0636 27.5095C67.6975 28.0166 68.3313 28.3969 69.092 28.3969C69.9794 28.3969 70.6133 28.1434 71.2471 27.5095C71.6275 27.1292 71.881 26.6221 71.881 25.9882H69.092V25.1008H72.7684C72.7684 25.2275 72.7684 25.4811 72.7684 25.6079Z" fill="white" stroke="white" stroke-width="0.2" stroke-miterlimit="10"/>
<path d="M78.5998 22.4385H75.1769V24.8472H78.3463V25.7346H75.1769V28.1434H78.5998V29.0308H74.1627V21.4243H78.5998V22.4385Z" fill="white" stroke="white" stroke-width="0.2" stroke-miterlimit="10"/>
<path d="M82.7835 29.1582H81.7693V22.4392H79.6141V21.5518H84.8119V22.4392H82.6567V29.1582H82.7835Z" fill="white" stroke="white" stroke-width="0.2" stroke-miterlimit="10"/>
<path d="M88.6152 29.1582V21.5518H89.6294V29.1582H88.6152Z" fill="white" stroke="white" stroke-width="0.2" stroke-miterlimit="10"/>
<path d="M93.9396 29.1582H92.9254V22.4392H90.7703V21.5518H95.968V22.4392H93.8128V29.1582H93.9396Z" fill="white" stroke="white" stroke-width="0.2" stroke-miterlimit="10"/>
<path d="M105.983 28.1434C105.223 28.904 104.335 29.2843 103.194 29.2843C102.053 29.2843 101.166 28.904 100.405 28.1434C99.6446 27.3827 99.2643 26.4953 99.2643 25.3543C99.2643 24.2134 99.6446 23.3259 100.405 22.5653C101.166 21.8046 102.053 21.4243 103.194 21.4243C104.335 21.4243 105.223 21.8046 105.983 22.5653C106.744 23.3259 107.124 24.2134 107.124 25.3543C107.124 26.3685 106.744 27.3827 105.983 28.1434ZM101.166 27.5095C101.673 28.0166 102.434 28.3969 103.194 28.3969C103.955 28.3969 104.716 28.1434 105.223 27.5095C105.73 27.0024 106.11 26.2417 106.11 25.3543C106.11 24.4669 105.857 23.7063 105.223 23.1992C104.716 22.6921 103.955 22.3117 103.194 22.3117C102.434 22.3117 101.673 22.5653 101.166 23.1992C100.659 23.7063 100.278 24.4669 100.278 25.3543C100.278 26.2417 100.532 26.8756 101.166 27.5095Z" fill="white" stroke="white" stroke-width="0.2" stroke-miterlimit="10"/>
<path d="M108.519 29.1582V21.5518H109.66L113.336 27.5101V25.9889V21.5518H114.35V29.1582H113.336L109.406 22.9463V24.4676V29.1582H108.519Z" fill="white" stroke="white" stroke-width="0.2" stroke-miterlimit="10"/>
<path d="M99.0105 40.1874C95.9679 40.1874 93.5592 42.4693 93.5592 45.6387C93.5592 48.6813 95.9679 51.09 99.0105 51.09C102.053 51.09 104.462 48.808 104.462 45.6387C104.462 42.4693 102.053 40.1874 99.0105 40.1874ZM99.0105 48.808C97.3625 48.808 95.9679 47.4135 95.9679 45.5119C95.9679 43.6103 97.3625 42.2158 99.0105 42.2158C100.659 42.2158 102.053 43.4835 102.053 45.5119C102.053 47.5403 100.659 48.808 99.0105 48.808ZM87.2205 40.1874C84.178 40.1874 81.7692 42.4693 81.7692 45.6387C81.7692 48.6813 84.178 51.09 87.2205 51.09C90.2631 51.09 92.6718 48.808 92.6718 45.6387C92.6718 42.4693 90.2631 40.1874 87.2205 40.1874ZM87.2205 48.808C85.5725 48.808 84.1779 47.4135 84.1779 45.5119C84.1779 43.6103 85.5725 42.2158 87.2205 42.2158C88.8686 42.2158 90.2631 43.4835 90.2631 45.5119C90.2631 47.5403 88.8686 48.808 87.2205 48.808ZM73.1486 41.8355V44.1174H78.5999C78.4731 45.3851 77.966 46.3993 77.3321 47.0332C76.5715 47.7938 75.3038 48.6813 73.1486 48.6813C69.7257 48.6813 67.1902 46.019 67.1902 42.5961C67.1902 39.1732 69.8525 36.5109 73.1486 36.5109C74.9234 36.5109 76.3179 37.2716 77.3321 38.159L78.9802 36.5109C77.5857 35.2432 75.8109 34.229 73.2754 34.229C68.7115 34.229 64.7815 38.0322 64.7815 42.5961C64.7815 47.16 68.7115 50.9632 73.2754 50.9632C75.8109 50.9632 77.5857 50.2026 79.107 48.5545C80.6283 47.0332 81.1354 44.878 81.1354 43.23C81.1354 42.7229 81.1354 42.2158 81.0086 41.8355H73.1486ZM130.704 43.6103C130.197 42.3426 128.929 40.1874 126.14 40.1874C123.351 40.1874 121.069 42.3425 121.069 45.6387C121.069 48.6813 123.351 51.09 126.394 51.09C128.802 51.09 130.324 49.5687 130.831 48.6813L129.056 47.4135C128.422 48.3009 127.661 48.9348 126.394 48.9348C125.126 48.9348 124.365 48.4277 123.731 47.2867L130.958 44.2442L130.704 43.6103ZM123.351 45.3851C123.351 43.3567 124.999 42.2158 126.14 42.2158C127.028 42.2158 127.915 42.7229 128.169 43.3567L123.351 45.3851ZM117.393 50.7096H119.801V34.8629H117.393V50.7096ZM113.59 41.4551C112.956 40.8213 111.941 40.1874 110.674 40.1874C108.012 40.1874 105.476 42.5961 105.476 45.6387C105.476 48.6813 107.885 50.9632 110.674 50.9632C111.941 50.9632 112.956 50.3293 113.463 49.6955H113.59V50.4561C113.59 52.4845 112.449 53.6255 110.674 53.6255C109.279 53.6255 108.265 52.6113 108.011 51.7238L105.856 52.6113C106.49 54.0058 108.012 55.7806 110.674 55.7806C113.463 55.7806 115.745 54.1326 115.745 50.2026V40.5677H113.463V41.4551H113.59ZM110.801 48.808C109.152 48.808 107.758 47.4135 107.758 45.5119C107.758 43.6103 109.152 42.2158 110.801 42.2158C112.449 42.2158 113.716 43.6103 113.716 45.5119C113.716 47.5403 112.449 48.808 110.801 48.808ZM141.733 34.8629H136.029V50.7096H138.437V44.7513H141.733C144.396 44.7513 146.931 42.8496 146.931 39.8071C146.931 36.7645 144.396 34.8629 141.733 34.8629ZM141.86 42.4693H138.437V37.018H141.86C143.635 37.018 144.649 38.5393 144.649 39.6803C144.522 40.948 143.508 42.4693 141.86 42.4693ZM156.439 40.1874C154.664 40.1874 152.89 40.948 152.256 42.5961L154.411 43.4835C154.918 42.5961 155.679 42.3426 156.566 42.3426C157.834 42.3426 158.975 43.1032 159.101 44.3709V44.4977C158.721 44.2442 157.707 43.8638 156.693 43.8638C154.411 43.8638 152.129 45.1316 152.129 47.4135C152.129 49.5687 154.031 50.9632 156.059 50.9632C157.707 50.9632 158.468 50.2025 159.101 49.4419H159.228V50.7096H161.51V44.6245C161.257 41.7087 159.101 40.1874 156.439 40.1874ZM156.186 48.808C155.425 48.808 154.284 48.4277 154.284 47.4135C154.284 46.1458 155.679 45.7655 156.82 45.7655C157.834 45.7655 158.341 46.019 158.975 46.2725C158.721 47.7938 157.453 48.808 156.186 48.808ZM169.497 40.5677L166.835 47.4135H166.708L163.919 40.5677H161.383L165.567 50.2026L163.158 55.5271H165.567L172.032 40.5677H169.497ZM148.199 50.7096H150.608V34.8629H148.199V50.7096Z" fill="white"/>
<g clip-path="url(#clip0_21_16)">
<path d="M54.5356 39.6777L49.5674 42.4895L45.1112 38.0613L49.6029 33.5976L54.5356 36.3892C54.8268 36.5538 55.069 36.7928 55.2375 37.0816C55.406 37.3705 55.4948 37.699 55.4948 38.0334C55.4948 38.3679 55.406 38.6963 55.2375 38.9852C55.069 39.2741 54.8268 39.5131 54.5356 39.6777ZM28.3175 23.9906C28.2234 24.219 28.1751 24.4637 28.1755 24.7107V51.3549C28.1755 51.63 28.2325 51.886 28.3327 52.1155L42.4743 38.06L28.3175 23.9906ZM43.7928 36.7505L47.9231 32.6455L30.9962 23.0665C30.6334 22.858 30.2108 22.778 29.7969 22.8395L43.7928 36.7505ZM43.7928 39.3709L29.8476 53.2311C30.2254 53.2768 30.6235 53.2108 30.9962 52.9991L47.8876 43.4403L43.7928 39.3709Z" fill="white"/>
</g>
<defs>
<clipPath id="clip0_21_16">
<rect width="30.4258" height="30.4258" fill="white" transform="translate(26.6225 22.8193)"/>
</clipPath>
</defs>
</svg>
